<svg id="Layer_1" data-name="Layer 1" xmlns="http://www.w3.org/2000/svg" viewBox="0 0 1000 1000"><defs><style>.cls-1{font-size:99.87px;font-family:Storica-Bold, Storica;font-weight:700;}.cls-2{letter-spacing:0em;}.cls-3{letter-spacing:-0.04em;}.cls-4{letter-spacing:-0.02em;}.cls-5{letter-spacing:-0.02em;}.cls-6{letter-spacing:-0.08em;}.cls-7{font-size:48px;font-family:Storica-Medium, Storica;font-weight:500;letter-spacing:0.48em;}.cls-8{letter-spacing:0.44em;}.cls-9{letter-spacing:0.49em;}.cls-10{letter-spacing:0.48em;}.cls-11{letter-spacing:0.5em;}</style></defs><polygon points="189.22 458.27 189.18 458.3 189.18 458.27 189.22 458.27"/><polygon points="228.47 534.77 240.69 547 231.07 558.71 219.93 572.24 208.79 558.71 160.27 499.77 154.53 492.79 154.5 492.76 154.46 492.71 149.81 486.12 163.4 476.52 189.18 458.3 189.22 458.27 210.75 458.27 210.75 475.46 194.69 475.46 174.35 489.82 219.92 545.17 228.47 534.77"/><polygon points="290.81 486.11 279.85 499.42 251.68 533.66 239.45 521.44 265.77 489.47 245.95 475.46 236.09 475.46 236.09 499.5 233.69 502.45 222.78 515.86 218.9 520.63 218.9 458.27 251.43 458.27 251.49 458.31 276.73 476.15 290.81 486.11"/><polygon points="251.48 458.27 251.48 458.31 251.43 458.27 251.48 458.27"/><path d="M222.8,453.6H218c0-.1-.08-.18-.06-.24.14-.8-.18-1.13-1-1.39a10.79,10.79,0,0,1-7.51-10.46c-.06-3.69,0-7.38,0-11.07a2.42,2.42,0,0,1,3.27-2.54,10.87,10.87,0,0,1,7.19,5.54c.13.25.27.5.32.59,1-1.26,2-2.61,3.18-3.76a9.48,9.48,0,0,1,4.84-2.44,2.34,2.34,0,0,1,3,2.22c0,4.31.23,8.64-.12,12.92s-3,7.38-7.15,8.93C223.07,452.22,222.43,452.46,222.8,453.6Z"/><path d="M209.86,453.63c-5.69,0-11.35,0-17,0a.9.9,0,0,1-.66-.48q-1.9-5.14-3.75-10.31a2.43,2.43,0,0,1,2.28-3.41,11.06,11.06,0,0,1,8.88,3c.12.1.23.21.25.23.5-1.46.91-3,1.53-4.4a9.32,9.32,0,0,1,3.16-3.71v1.05c0,2.35-.05,4.69.06,7a15.21,15.21,0,0,0,4.45,10l.8.8S209.86,453.51,209.86,453.63Z"/><path d="M230.75,453.56c.74-.85,1.52-1.62,2.17-2.49a15.54,15.54,0,0,0,3.16-9.72c0-1.94,0-3.88,0-5.82,0-.26,0-.53,0-.95a11.28,11.28,0,0,1,4.43,8.2c.19-.15.36-.27.5-.4a11.07,11.07,0,0,1,8.83-3,2.44,2.44,0,0,1,2.27,3.48c-1.22,3.39-2.46,6.77-3.69,10.16-.12.34-.22.6-.69.6q-8.4,0-16.81,0A1,1,0,0,1,230.75,453.56Z"/><text class="cls-1" transform="translate(339.58 504.95)"><tspan class="cls-2">C</tspan><tspan class="cls-3" x="79.59" y="0">R</tspan><tspan class="cls-4" x="151.39" y="0">Y</tspan><tspan class="cls-5" x="227.29" y="0">S</tspan><tspan class="cls-6" x="293.2" y="0">T</tspan><tspan x="359.91" y="0">AL</tspan></text><text class="cls-7" transform="translate(442.27 567.5)">D<tspan class="cls-8" x="61.49" y="0">E</tspan><tspan class="cls-9" x="115.63" y="0">C</tspan><tspan class="cls-10" x="176.4" y="0">O</tspan><tspan class="cls-11" x="244.99" y="0">R</tspan></text></svg>